<?xml version="1.0" encoding="UTF-8"?>
<svg id="Layer_2" data-name="Layer 2" xmlns="http://www.w3.org/2000/svg" viewBox="0 0 186.24 46.09">
  <defs>
    <style>
      .cls-1 {
        font-family: Orbitron-Bold, Orbitron;
        font-size: 36px;
        font-variation-settings: 'wght' 700;
        font-weight: 700;
      }

      .cls-1, .cls-2 {
        fill: #fff;
      }

      .cls-3 {
        letter-spacing: 0em;
      }

      .cls-4 {
        letter-spacing: -.02em;
      }

      .cls-5 {
        letter-spacing: .01em;
      }
    </style>
  </defs>
  <g id="Layer_1-2" data-name="Layer 1">
    <path class="cls-2" d="M.42,20.99l7.21,4.16c.13.07.27.11.42.11s.29-.04.42-.11l1.89-1.09v-1.92l-1.48.85v-6.41l5.55-3.2v1.71l1.67-.96v-2.19c0-.3-.16-.57-.42-.72l-7.21-4.16c-.26-.15-.58-.15-.83,0L.42,11.22c-.26.15-.42.42-.42.72v8.33c0,.3.16.57.42.72ZM8.05,8.74l5.55,3.2-5.55,3.2-5.55-3.2,5.55-3.2ZM1.67,13.38l5.55,3.2v6.41l-5.55-3.2v-6.41ZM13.69,6.44l5.55,3.2v2.72c.54-.19,1.13-.19,1.67,0v-2.72l5.55-3.2v1.71l1.67-.96v-2.19c0-.3-.16-.57-.42-.72L20.49.11c-.26-.15-.58-.15-.83,0l-7.21,4.16c-.26.15-.42.42-.42.72v2.19l1.67.96v-1.71ZM20.07,1.79l5.55,3.2-5.55,3.2-5.55-3.2,5.55-3.2ZM39.72,11.22l-7.21-4.16c-.26-.15-.58-.15-.83,0l-7.21,4.16c-.26.15-.42.42-.42.72v2.19l1.67.96v-1.71l5.55,3.2v6.41l-1.48-.85v1.92l1.89,1.09c.13.07.27.11.42.11s.29-.04.42-.11l7.21-4.16c.26-.15.42-.42.42-.72v-8.33c0-.3-.16-.57-.42-.72ZM32.09,15.14l-5.55-3.2,5.55-3.2,5.55,3.2-5.55,3.2ZM38.47,19.79l-5.55,3.2v-6.41l5.55-3.2v6.41ZM39.72,25.1l-1.89-1.09-1.67.96,1.48.85-5.55,3.2-2.35-1.36c-.1.56-.4,1.07-.83,1.44l2.35,1.36v6.41l-1.48-.85v1.92l1.89,1.09c.13.07.27.11.42.11s.29-.04.42-.11l7.21-4.16c.26-.15.42-.42.42-.72v-8.33c0-.3-.16-.57-.42-.72ZM38.47,33.67l-5.55,3.2v-6.41l5.55-3.2v6.41ZM11.23,29.11c-.43-.37-.73-.88-.83-1.44l-2.35,1.36-5.55-3.2,1.48-.85-1.67-.96-1.89,1.09c-.26.15-.42.42-.42.72v8.33c0,.3.16.57.42.72l7.21,4.16c.13.07.27.11.42.11s.29-.04.42-.11l1.89-1.09v-1.92l-1.48.85v-6.41l2.35-1.36ZM7.21,36.87l-5.55-3.2v-6.41l5.55,3.2v6.41ZM27.7,32.04l-1.89-1.09-1.67.96,1.48.85-5.55,3.2-5.55-3.2,1.48-.85-1.67-.96-1.89,1.09c-.26.15-.42.42-.42.72v8.33c0,.3.16.57.42.72l7.21,4.16c.13.07.27.11.42.11s.29-.04.42-.11l7.21-4.16c.26-.15.42-.42.42-.72v-8.33c0-.3-.16-.57-.42-.72ZM19.24,43.81l-5.55-3.2v-6.41l5.55,3.2v6.41ZM26.45,40.61l-5.55,3.2v-6.41l5.55-3.2v6.41ZM27.7,18.16l-7.21-4.16c-.26-.15-.58-.15-.83,0l-7.21,4.16c-.26.15-.42.42-.42.72v8.33c0,.3.16.57.42.72l7.21,4.16c.13.07.27.11.42.11s.29-.04.42-.11l7.21-4.16c.26-.15.42-.42.42-.72v-8.33c0-.3-.16-.57-.42-.72ZM19.24,29.93l-5.55-3.2v-6.41l5.55,3.2v6.41ZM20.07,22.08l-5.55-3.2,5.55-3.2,5.55,3.2-5.55,3.2ZM26.45,26.73l-5.55,3.2v-6.41l5.55-3.2v6.41Z"/>
    <text class="cls-1" transform="translate(45.62 36.25)"><tspan x="0" y="0">ko</tspan><tspan class="cls-4" x="48.17" y="0">d</tspan><tspan class="cls-3" x="71.32" y="0">u</tspan><tspan class="cls-5" x="96.34" y="0">r</tspan><tspan x="115.63" y="0">a</tspan></text>
  </g>
</svg>